<mxfile host="65bd71144e">
    <diagram id="7QqPtaQoR5CSWOnQSoGx" name="ERD 설계">
        <mxGraphModel dx="994" dy="593" grid="1" gridSize="10" guides="1" tooltips="1" connect="1" arrows="1" fold="1" page="1" pageScale="1" pageWidth="827" pageHeight="1169" math="0" shadow="0">
            <root>
                <mxCell id="0"/>
                <mxCell id="1" parent="0"/>
                <mxCell id="2" value="ERD 설계 1차" style="text;strokeColor=none;fillColor=none;html=1;fontSize=24;fontStyle=1;verticalAlign=middle;align=center;" parent="1" vertex="1">
                    <mxGeometry x="60" y="30" width="100" height="40" as="geometry"/>
                </mxCell>
                <mxCell id="6" value="User ( &lt;u&gt;UserID&lt;/u&gt;, Name, PhoneNum, ImageURL )" style="text;html=1;strokeColor=none;fillColor=none;align=left;verticalAlign=middle;whiteSpace=wrap;rounded=0;" parent="1" vertex="1">
                    <mxGeometry x="40" y="90" width="470" height="30" as="geometry"/>
                </mxCell>
                <mxCell id="7" value="House ( &lt;u&gt;HouseID&lt;/u&gt;, Address, Size, &lt;u&gt;OwnerID&lt;/u&gt;, OwnType, Price, MadeAt, UseType )" style="text;html=1;strokeColor=none;fillColor=none;align=left;verticalAlign=middle;whiteSpace=wrap;rounded=0;" parent="1" vertex="1">
                    <mxGeometry x="40" y="140" width="470" height="30" as="geometry"/>
                </mxCell>
                <mxCell id="8" value="Post ( &lt;u&gt;PostID&lt;/u&gt;, Title, Contents, ImageURL, Count,&amp;nbsp;&lt;u&gt;WriterID&lt;/u&gt;, &lt;u&gt;CategoryID&lt;/u&gt;, isAdvertisement )" style="text;html=1;strokeColor=none;fillColor=none;align=left;verticalAlign=middle;whiteSpace=wrap;rounded=0;" parent="1" vertex="1">
                    <mxGeometry x="40" y="220" width="480" height="30" as="geometry"/>
                </mxCell>
                <mxCell id="9" value="Comment ( &lt;u&gt;CommentID&lt;/u&gt;, Contents, &lt;u&gt;PostID&lt;/u&gt;, &lt;u&gt;CommenterID&lt;/u&gt; )" style="text;html=1;strokeColor=none;fillColor=none;align=left;verticalAlign=middle;whiteSpace=wrap;rounded=0;" parent="1" vertex="1">
                    <mxGeometry x="40" y="360" width="470" height="30" as="geometry"/>
                </mxCell>
                <mxCell id="11" value="PostCategory ( &lt;u&gt;CategoryID&lt;/u&gt;, Name )" style="text;html=1;strokeColor=none;fillColor=none;align=left;verticalAlign=middle;whiteSpace=wrap;rounded=0;" parent="1" vertex="1">
                    <mxGeometry x="40" y="470" width="470" height="30" as="geometry"/>
                </mxCell>
                <mxCell id="12" value="사용자는 이름과 전화번호를 통해 회원가입을 한다.&lt;br&gt;사용자는 전화번호 인증 과정을 거쳐 회원가입을 한다.&lt;br&gt;추후 사용자의 프로필 이미지 사진 변경을 가능하게 한다." style="text;html=1;strokeColor=none;fillColor=none;align=left;verticalAlign=middle;whiteSpace=wrap;rounded=0;" parent="1" vertex="1">
                    <mxGeometry x="560" y="90" width="470" height="30" as="geometry"/>
                </mxCell>
                <mxCell id="13" value="빈 집 매물은 매물이 위치한 주소, 매물의 크기, 매매/월세 여부, 그때의 가격, 준공연도, 용도의 정보를 가지고 있다.&lt;br&gt;모든 빈 집 매물은 반드시 소유자가 존재해야 하며, 소유자는 우리 사이트에 등록된 회원이어야 한다." style="text;html=1;strokeColor=none;fillColor=none;align=left;verticalAlign=middle;whiteSpace=wrap;rounded=0;" parent="1" vertex="1">
                    <mxGeometry x="560" y="150" width="470" height="30" as="geometry"/>
                </mxCell>
                <mxCell id="14" value="Deal ( &lt;u&gt;DealID&lt;/u&gt;, &lt;u&gt;HouseID&lt;/u&gt;, &lt;u&gt;BuyerID&lt;/u&gt;, isCompleted )" style="text;html=1;strokeColor=none;fillColor=none;align=left;verticalAlign=middle;whiteSpace=wrap;rounded=0;" vertex="1" parent="1">
                    <mxGeometry x="40" y="540" width="470" height="30" as="geometry"/>
                </mxCell>
                <mxCell id="15" value="게시글은 제목, 내용, 사진, 조회수, 광고 여부의 정보를 가지고 있다.&lt;br&gt;게시글의 제목은 최대 50자이다.&lt;br&gt;게시글의 사진은 최대 10장까지 등록 가능하다.&lt;br&gt;게시글의 광고는 관리자만이 설정할 수 있다.&lt;br&gt;모든 게시글은 반드시 작성자가 존재해야 하며, 작성자는 우리 사이트에 등록된 회원이어야 한다.&lt;br&gt;게시글은 4가지 타입을 갖는다. 빈 집 매물을 홍보하기 위한 빈 집 게시글, 빈 집 거래 후기를 남기기 위한 후기 게시글, 우리 사이트에서 자유롭게 정보를 주고 받을 수 있는 자유 게시글, 빈 집 혹은 오도이촌 등 듀얼 라이프에 대한 것을 홍보하기 위한 홍보 게시글이 있다.&lt;br&gt;게시글 타입을 갖지 않는 게시글은 존재할 수 없다.&lt;br&gt;게시글의 삭제 권한은 게시글을 작성한 작성자와 관리자이다." style="text;html=1;strokeColor=none;fillColor=none;align=left;verticalAlign=middle;whiteSpace=wrap;rounded=0;perimeterSpacing=0;" vertex="1" parent="1">
                    <mxGeometry x="560" y="205" width="470" height="145" as="geometry"/>
                </mxCell>
                <mxCell id="16" value="댓글은 댓글 내용의 정보를 가지고 있다.&amp;nbsp;&lt;br&gt;모든 댓글은 반드시 작성자가 존재해야 하며, 작성자는 우리 사이트에 등록된 회원이어야 한다.&lt;br&gt;댓글의 삭제 권한은 댓글을 작성한 작성자이다." style="text;html=1;strokeColor=none;fillColor=none;align=left;verticalAlign=middle;whiteSpace=wrap;rounded=0;perimeterSpacing=0;" vertex="1" parent="1">
                    <mxGeometry x="560" y="360" width="470" height="70" as="geometry"/>
                </mxCell>
                <mxCell id="17" value="게시글 타입은 타입명의 정보를 가지고 있다.&lt;br&gt;모든 게시글은 게시글 타입을 갖는다." style="text;html=1;strokeColor=none;fillColor=none;align=left;verticalAlign=middle;whiteSpace=wrap;rounded=0;perimeterSpacing=0;" vertex="1" parent="1">
                    <mxGeometry x="560" y="470" width="470" height="50" as="geometry"/>
                </mxCell>
                <mxCell id="18" value="거래는 빈 집 매물 정보와 구매자 정보, 거래 여부의 정보를 갖는다.&lt;br&gt;거래 여부의 확정은 추후 빈 집 매물을 등록한 사용자가 한다." style="text;html=1;strokeColor=none;fillColor=none;align=left;verticalAlign=middle;whiteSpace=wrap;rounded=0;perimeterSpacing=0;" vertex="1" parent="1">
                    <mxGeometry x="560" y="530" width="470" height="50" as="geometry"/>
                </mxCell>
            </root>
        </mxGraphModel>
    </diagram>
</mxfile>